<svg width="275" height="93" viewBox="0 0 275 93" fill="none" xmlns="http://www.w3.org/2000/svg">
<g filter="url(#filter0_dd_71_80)">
<path d="M46.64 77.7222C46.64 77.7222 54.45 81.1322 55.33 81.2422C56.21 81.3522 57.31 81.9022 59.62 81.9022C61.93 81.9022 65.01 80.8022 66.55 81.5722C68.09 82.3422 68.86 83.5522 72.38 82.3422C75.9 81.1322 79.53 80.3622 79.53 80.3622L84.37 79.5922C84.37 79.5922 87.12 79.4822 89.32 79.7022C91.52 80.0322 95.92 80.3622 95.92 80.3622C95.92 80.3622 99 80.4722 100.98 80.2522C102.96 79.9222 106.7 79.1522 107.8 77.5022C108.9 75.8522 110.55 74.7522 110.55 74.7522L112.42 70.6822L78.98 73.6522L46.53 77.8322L46.64 77.7222Z" fill="white"/>
<path d="M46.64 77.7222C46.64 75.3022 55 3.4722 55 3.4722L108.9 1.0522L112.53 70.5722C112.53 70.5722 106.59 75.4122 104.17 76.5122C101.75 77.7222 89.76 76.5122 89.76 76.5122L77.77 78.9322L65.78 80.1422L46.64 77.7222Z" fill="#D762A1"/>
<path d="M93.83 58.3622L90.09 49.6722H71.5L67.76 58.3622H56.76L76.34 16.3422H85.03L104.72 58.3622H93.83ZM75.02 41.4222H86.57L80.74 28.0022L74.91 41.4222H75.02Z" fill="#F9F5A9"/>
<path d="M3.96 69.6922C3.96 69.6922 6.49 43.9522 5.39 38.1222C4.29 32.2922 5.06 16.4522 5.39 14.5822C5.72 12.6022 54.12 14.5822 54.12 14.5822L52.69 70.0222L26.4 80.2522L3.96 69.6922Z" fill="#FF8283"/>
<path d="M26.95 62.4322H10.56V22.7222H26.95C31.24 22.7222 35.09 23.4922 38.17 25.0322C41.36 26.5722 43.89 28.9922 45.54 31.9622C47.19 34.9322 48.07 38.4522 48.07 42.5222C48.07 46.5922 47.19 50.2222 45.54 53.1922C43.89 56.1622 41.36 58.5822 38.17 60.1222C34.98 61.6622 31.24 62.4322 26.84 62.4322H26.95ZM12.65 60.3422H26.95C30.91 60.3422 34.43 59.5722 37.29 58.2522C40.04 56.8222 42.24 54.8422 43.67 52.2022C45.1 49.5622 45.87 46.3722 45.87 42.6322C45.87 38.8922 45.1 35.7022 43.56 33.0622C42.02 30.4222 39.93 28.4422 37.07 27.0122C34.21 25.5822 30.8 24.9222 26.84 24.9222H12.65V60.4522V60.3422ZM26.29 54.6222H20.46V30.6422H26.29C30.25 30.6422 33.33 31.6322 35.31 33.6122C37.29 35.5922 38.39 38.6722 38.39 42.5222C38.39 46.3722 37.4 49.4522 35.31 51.5422C33.33 53.5222 30.25 54.6222 26.29 54.6222ZM22.55 52.4222H26.29C29.7 52.4222 32.23 51.6522 33.77 50.0022C35.42 48.3522 36.19 45.9322 36.19 42.5222C36.19 39.1122 35.42 36.6922 33.77 35.0422C32.12 33.5022 29.59 32.6222 26.29 32.6222H22.55V52.3122V52.4222Z" fill="#5C0101"/>
<path d="M147.84 49.7822C147.84 49.7822 146.96 43.9522 146.96 42.8522C146.96 41.7522 146.63 35.0422 147.84 32.8422C148.94 30.6422 150.04 26.2422 150.04 26.2422C150.04 26.2422 149.71 23.7122 150.04 21.8422C150.37 19.8622 150.59 19.0922 150.92 17.9922C151.25 16.8922 151.8 15.7922 150.92 14.1422C150.04 12.4922 150.37 11.0622 150.37 11.0622L151.8 6.3322C151.8 6.3322 154.55 5.2322 156.53 4.9022C158.51 4.5722 158.73 4.3522 162.03 4.0222C165.33 3.6922 167.53 5.6722 167.53 5.6722L157.3 33.3922L147.84 49.7822Z" fill="white"/>
<path d="M155.54 70.9022C155.54 70.9022 166.1 76.4022 167.97 76.9522C169.95 77.5022 171.27 78.0522 173.8 78.6022C176.33 79.1522 177.43 79.7022 178.75 80.0322C180.18 80.3622 179.85 80.3622 182.38 80.5822C184.91 80.9122 187.33 81.1322 187.88 80.2522C188.43 79.3722 190.96 78.8222 190.96 78.8222C190.96 78.8222 193.16 78.4922 195.69 78.8222C198.22 79.1522 201.19 77.3922 201.19 77.3922L204.49 76.5122L208.67 77.6122L209.22 75.6322L210.87 73.1022C210.87 73.1022 211.2 70.3522 211.2 69.2522C211.2 68.1522 211.75 61.7722 211.75 61.7722L155.54 70.6822V70.9022Z" fill="white"/>
<path d="M152.02 74.7522C150.59 72.2222 147.07 52.8622 147.07 47.9122C147.07 42.9622 147.62 39.8822 150.7 30.9722C153.78 22.0622 153.23 16.0122 154 12.3822C154.77 8.7522 154.33 5.1222 160.05 3.4722C165.88 1.8222 178.31 -0.157797 185.57 0.392203C192.83 0.942203 204.93 2.9222 204.93 2.9222C204.93 2.9222 213.51 4.9022 213.29 11.8322C212.96 18.7622 211.64 36.8022 211.64 36.8022L211.97 61.9922L207.02 73.3222L180.73 78.6022L152.13 74.7522H152.02Z" fill="#FFE9F5"/>
<path d="M163.46 62.6522C161.92 62.6522 161.15 61.9922 161.15 60.3422V19.7522C161.15 18.2122 161.81 17.4422 163.46 17.4422H173.14C174.68 17.4422 175.45 18.1022 175.45 19.7522V33.3922H185.9V19.7522C185.9 18.2122 186.56 17.4422 188.21 17.4422H197.89C199.43 17.4422 200.2 18.1022 200.2 19.7522V60.3422C200.2 61.8822 199.54 62.6522 197.89 62.6522H188.21C186.67 62.6522 185.9 61.9922 185.9 60.3422V46.4822H175.45V60.3422C175.45 61.8822 174.79 62.6522 173.14 62.6522H163.46ZM168.63 57.0422V40.4322H192.72V57.0422H193.38V23.1622H192.72V39.7722H168.63V23.1622H167.97V57.0422H168.63Z" fill="#FF47E2"/>
<path d="M132.77 72.8822L111.21 70.2422L106.26 40.9822L109.67 19.7522L132.77 72.8822Z" fill="white"/>
<path d="M113.08 66.3922C113.08 66.3922 106.26 22.7222 109.67 19.7522C113.08 16.6722 122.21 15.5722 128.7 14.0322C135.19 12.4922 144.65 11.3922 146.96 14.8022C149.27 18.2122 151.91 25.8022 152.68 29.6522C153.45 33.5022 153.45 46.7022 154.22 51.6522C154.99 56.6022 154.22 66.0622 153.89 69.1422C153.56 72.2222 132.99 72.9922 132.99 72.9922L113.3 66.5022L113.08 66.3922Z" fill="#CC9FF7"/>
<path d="M133.65 25.4722C133.1 25.4722 132.55 25.4722 132.11 25.6922C131.56 25.8022 131.12 26.0222 130.79 26.3522C130.35 26.6822 130.13 27.1222 129.91 27.5622C129.69 28.1122 129.58 28.6622 129.58 29.3222C129.58 29.9822 129.91 31.1922 130.57 32.1822C131.23 33.0622 132.11 34.0522 133.1 35.0422C134.09 36.0322 135.3 37.1322 136.4 38.1222C137.5 39.1122 138.71 40.3222 139.7 41.5322C140.69 42.7422 141.57 44.0622 142.23 45.3822C142.89 46.7022 143.22 48.2422 143.22 49.7822C143.22 51.3222 142.89 53.0822 142.34 54.4022C141.79 55.7222 140.91 56.9322 139.81 57.8122C138.71 58.8022 137.39 59.4622 135.85 60.0122C134.31 60.5622 132.55 60.7822 130.68 60.7822C128.81 60.7822 127.49 60.5622 126.17 60.1222C124.85 59.6822 123.64 59.0222 122.54 58.3622C121.44 57.7022 120.56 56.9322 119.79 56.1622C119.02 55.3922 118.47 54.7322 118.03 54.0722L119.35 53.1922C119.68 53.5222 120.01 53.9622 120.56 54.4022C121 54.8422 121.55 55.1722 122.21 55.6122C122.76 55.9422 123.42 56.2722 124.08 56.4922C124.74 56.7122 125.4 56.8222 126.17 56.8222C127.93 56.8222 129.36 56.3822 130.46 55.6122C131.56 54.7322 132.11 53.5222 132.11 51.8722C132.11 50.2222 131.78 50.0022 131.23 49.0122C130.57 48.0222 129.91 47.0322 128.92 45.9322C128.04 44.9422 127.05 43.8422 125.95 42.7422C124.85 41.6422 123.86 40.4322 122.98 39.3322C122.1 38.1222 121.33 36.9122 120.67 35.7022C120.01 34.4922 119.79 33.1722 119.79 31.7422C119.79 30.3122 120.12 28.8822 120.67 27.7822C121.33 26.6822 122.1 25.6922 123.09 24.9222C124.08 24.1522 125.29 23.6022 126.61 23.2722C127.93 22.9422 129.25 22.7222 130.68 22.7222C132.11 22.7222 133.76 22.8322 135.08 23.1622C136.4 23.4922 137.61 23.9322 138.49 24.4822C139.48 25.0322 140.14 25.8022 140.69 26.6822C141.24 27.5622 141.46 28.6622 141.46 29.7622C141.46 30.8622 141.13 31.5222 140.58 32.1822C139.92 32.8422 139.15 33.1722 138.05 33.1722C136.95 33.1722 136.18 32.9522 135.63 32.5122C135.08 32.0722 134.86 31.4122 134.86 30.6422C134.86 29.8722 134.97 29.7622 135.19 29.4322C135.41 29.1022 135.74 28.8822 136.07 28.7722C136.4 28.6622 136.62 28.4422 136.95 28.3322C137.17 28.2222 137.28 28.0022 137.28 27.7822C137.28 27.1222 136.95 26.5722 136.18 26.1322C135.41 25.6922 134.53 25.5822 133.43 25.5822L133.65 25.4722Z" fill="#5C0101"/>
<path d="M203.94 71.5622L212.74 15.0222L271.04 9.8522L268.29 85.5322L203.94 71.5622Z" fill="#9260C2"/>
<path d="M208.67 40.7622L270.27 31.7422L271.04 9.8522L212.74 15.0222L208.67 40.7622Z" fill="#764E9D"/>
<path d="M249.04 66.9422L248.49 61.9922H248.27C246.07 65.0722 241.78 67.8222 236.17 67.8222C228.14 67.8222 224.07 62.2122 224.07 56.4922C224.07 46.9222 232.54 41.7522 247.83 41.8622V41.0922C247.83 37.7922 246.95 31.9622 238.92 31.9622C230.89 31.9622 231.44 33.0622 228.69 34.9322L227.04 30.2022C230.34 28.1122 235.07 26.6822 240.02 26.6822C252.12 26.6822 254.98 34.9322 254.98 42.8522V57.5922C254.98 61.0022 255.09 64.3022 255.64 67.0522H249.15L249.04 66.9422ZM248.05 46.8122C240.24 46.7022 231.33 48.0222 231.33 55.7222C231.33 63.4222 234.41 62.5422 238.04 62.5422C241.67 62.5422 246.4 59.2422 247.61 55.9422C247.83 55.1722 248.05 54.4022 248.05 53.6322V46.8122Z" fill="#FFE9F5"/>
</g>
<defs>
<filter id="filter0_dd_71_80" x="0.959999" y="0.29847" width="273.08" height="92.2337" filterUnits="userSpaceOnUse" color-interpolation-filters="sRGB">
<feFlood flood-opacity="0" result="BackgroundImageFix"/>
<feColorMatrix in="SourceAlpha" type="matrix" values="0 0 0 0 0 0 0 0 0 0 0 0 0 0 0 0 0 0 127 0" result="hardAlpha"/>
<feOffset dy="2"/>
<feGaussianBlur stdDeviation="0.5"/>
<feComposite in2="hardAlpha" operator="out"/>
<feColorMatrix type="matrix" values="0 0 0 0 0.747949 0 0 0 0 0.384395 0 0 0 0 0.580798 0 0 0 0.3 0"/>
<feBlend mode="normal" in2="BackgroundImageFix" result="effect1_dropShadow_71_80"/>
<feColorMatrix in="SourceAlpha" type="matrix" values="0 0 0 0 0 0 0 0 0 0 0 0 0 0 0 0 0 0 127 0" result="hardAlpha"/>
<feOffset dy="4"/>
<feGaussianBlur stdDeviation="1.5"/>
<feComposite in2="hardAlpha" operator="out"/>
<feColorMatrix type="matrix" values="0 0 0 0 0.747949 0 0 0 0 0.384395 0 0 0 0 0.580798 0 0 0 0.3 0"/>
<feBlend mode="normal" in2="effect1_dropShadow_71_80" result="effect2_dropShadow_71_80"/>
<feBlend mode="normal" in="SourceGraphic" in2="effect2_dropShadow_71_80" result="shape"/>
</filter>
</defs>
</svg>
